<svg width="271" height="288" viewBox="0 0 271 288" fill="none" xmlns="http://www.w3.org/2000/svg">
<path d="M0 242.175V192H19.2981C22.3224 192 25.0107 192.597 27.3629 193.792C29.7632 194.939 31.6594 196.587 33.0515 198.738C34.4437 200.888 35.1398 203.493 35.1398 206.551V207.483C35.1398 210.493 34.4197 213.097 32.9795 215.296C31.5874 217.446 29.6912 219.095 27.2909 220.241C24.8907 221.388 22.2264 221.962 19.2981 221.962H6.04865V242.175H0ZM6.04865 216.514H18.65C21.8663 216.514 24.4106 215.726 26.2828 214.149C28.155 212.524 29.0911 210.254 29.0911 207.339V206.622C29.0911 203.708 28.155 201.462 26.2828 199.885C24.4586 198.26 21.9144 197.448 18.65 197.448H6.04865V216.514Z" fill="#107070"/>
<path d="M35.2078 242.175L50.7615 192H61.4187L76.9723 242.175H70.7076L66.8192 229.488H45.3609L41.4725 242.175H35.2078ZM46.8731 224.04H65.2351L56.5941 195.656H55.586L46.8731 224.04Z" fill="#107070"/>
<path d="M84.5247 242.175V192H90.5733V236.728H116.064V242.175H84.5247Z" fill="#107070"/>
<path d="M119.873 242.175L135.427 192H146.084L161.638 242.175H155.373L151.485 229.488H130.026L126.138 242.175H119.873ZM131.538 224.04H149.9L141.259 195.656H140.251L131.538 224.04Z" fill="#107070"/>
<path d="M166.814 242.175V236.799H173.871V197.376H166.814V192H186.472C193.097 192 198.209 193.673 201.81 197.018C205.458 200.363 207.282 205.5 207.282 212.428V221.747C207.282 228.723 205.458 233.884 201.81 237.229C198.209 240.527 193.097 242.175 186.472 242.175H166.814ZM179.919 236.728H186.472C191.368 236.728 195.065 235.533 197.561 233.144C200.057 230.754 201.305 227.051 201.305 222.033V212.213C201.305 207.1 200.057 203.373 197.561 201.032C195.065 198.69 191.368 197.519 186.472 197.519H179.919V236.728Z" fill="#107070"/>
<path d="M216.937 242.175V192H222.986V242.175H216.937Z" fill="#107070"/>
<path d="M234.517 242.175V192H246.255L263.824 238.376H264.761V192H270.737V242.175H259L241.502 195.727H240.494V242.175H234.517Z" fill="#107070"/>
<path d="M260.268 288V285.201H267.138C267.613 285.201 267.851 284.947 267.851 284.438V281.257H267.393C267.257 281.546 267.045 281.834 266.757 282.122C266.468 282.411 266.078 282.648 265.586 282.835C265.094 283.022 264.467 283.115 263.703 283.115C262.719 283.115 261.854 282.894 261.108 282.453C260.379 281.995 259.81 281.368 259.403 280.57C258.996 279.773 258.792 278.857 258.792 277.822V270.291H261.998V277.568C261.998 278.518 262.227 279.23 262.685 279.705C263.16 280.18 263.83 280.418 264.696 280.418C265.679 280.418 266.443 280.095 266.986 279.451C267.528 278.789 267.8 277.873 267.8 276.703V270.291H271.006V285.15C271.006 286.015 270.751 286.702 270.242 287.211C269.734 287.737 269.055 288 268.207 288H260.268Z" fill="#107070"/>
<path d="M249.915 283.267C248.693 283.267 247.582 283.012 246.581 282.503C245.598 281.995 244.817 281.257 244.241 280.29C243.664 279.323 243.375 278.152 243.375 276.778V276.422C243.375 275.048 243.664 273.878 244.241 272.911C244.817 271.944 245.598 271.206 246.581 270.697C247.582 270.188 248.693 269.934 249.915 269.934C251.119 269.934 252.154 270.146 253.019 270.57C253.884 270.994 254.58 271.579 255.105 272.326C255.648 273.055 256.004 273.886 256.174 274.819L253.07 275.481C253.002 274.972 252.849 274.514 252.612 274.107C252.374 273.7 252.035 273.377 251.594 273.14C251.17 272.902 250.636 272.784 249.991 272.784C249.346 272.784 248.761 272.928 248.235 273.216C247.726 273.488 247.319 273.903 247.014 274.463C246.726 275.006 246.581 275.676 246.581 276.473V276.728C246.581 277.525 246.726 278.203 247.014 278.763C247.319 279.306 247.726 279.722 248.235 280.01C248.761 280.281 249.346 280.417 249.991 280.417C250.958 280.417 251.687 280.171 252.179 279.679C252.688 279.17 253.01 278.509 253.146 277.694L256.25 278.432C256.03 279.331 255.648 280.154 255.105 280.9C254.58 281.63 253.884 282.207 253.019 282.631C252.154 283.055 251.119 283.267 249.915 283.267Z" fill="#107070"/>
<path d="M233.443 283.267C232.544 283.267 231.738 283.114 231.025 282.809C230.313 282.487 229.745 282.029 229.321 281.435C228.914 280.824 228.71 280.086 228.71 279.221C228.71 278.356 228.914 277.635 229.321 277.058C229.745 276.465 230.321 276.024 231.051 275.735C231.797 275.43 232.645 275.277 233.595 275.277H237.056V274.565C237.056 273.971 236.869 273.488 236.496 273.114C236.123 272.724 235.529 272.529 234.715 272.529C233.918 272.529 233.324 272.716 232.934 273.089C232.544 273.445 232.289 273.912 232.17 274.488L229.219 273.496C229.422 272.852 229.745 272.266 230.186 271.74C230.644 271.198 231.246 270.765 231.992 270.443C232.756 270.104 233.68 269.934 234.766 269.934C236.428 269.934 237.743 270.35 238.71 271.181C239.676 272.012 240.16 273.216 240.16 274.794V279.501C240.16 280.01 240.397 280.264 240.872 280.264H241.89V282.911H239.753C239.125 282.911 238.608 282.758 238.201 282.453C237.794 282.147 237.59 281.74 237.59 281.231V281.206H237.107C237.039 281.409 236.886 281.681 236.649 282.02C236.411 282.342 236.038 282.631 235.529 282.885C235.02 283.14 234.325 283.267 233.443 283.267ZM234.002 280.671C234.901 280.671 235.631 280.426 236.191 279.934C236.767 279.425 237.056 278.755 237.056 277.923V277.669H233.824C233.231 277.669 232.764 277.796 232.425 278.051C232.086 278.305 231.916 278.661 231.916 279.119C231.916 279.577 232.094 279.951 232.45 280.239C232.807 280.527 233.324 280.671 234.002 280.671Z" fill="#107070"/>
<path d="M218.529 282.911L214.508 270.291H217.918L220.844 280.57H221.302L224.228 270.291H227.638L223.618 282.911H218.529Z" fill="#107070"/>
<path d="M209.124 282.911V270.29H212.33V282.911H209.124ZM210.727 268.815C210.15 268.815 209.658 268.628 209.251 268.255C208.861 267.882 208.666 267.39 208.666 266.779C208.666 266.168 208.861 265.677 209.251 265.303C209.658 264.93 210.15 264.744 210.727 264.744C211.32 264.744 211.812 264.93 212.202 265.303C212.593 265.677 212.788 266.168 212.788 266.779C212.788 267.39 212.593 267.882 212.202 268.255C211.812 268.628 211.32 268.815 210.727 268.815Z" fill="#107070"/>
<path d="M199.035 282.91V270.29H202.191V271.715H202.649C202.835 271.206 203.14 270.833 203.565 270.595C204.006 270.358 204.514 270.239 205.091 270.239H206.618V273.089H205.04C204.226 273.089 203.556 273.309 203.03 273.75C202.504 274.175 202.241 274.836 202.241 275.735V282.91H199.035Z" fill="#107070"/>
<path d="M183.577 282.911V265.1H190.905C192.025 265.1 193.009 265.329 193.857 265.787C194.722 266.228 195.392 266.856 195.867 267.67C196.359 268.484 196.605 269.451 196.605 270.57V270.927C196.605 272.029 196.35 272.996 195.842 273.827C195.35 274.642 194.671 275.278 193.806 275.736C192.958 276.177 191.991 276.397 190.905 276.397H186.936V282.911H183.577ZM186.936 273.344H190.575C191.372 273.344 192.016 273.123 192.508 272.682C193 272.241 193.246 271.639 193.246 270.876V270.621C193.246 269.858 193 269.256 192.508 268.815C192.016 268.374 191.372 268.153 190.575 268.153H186.936V273.344Z" fill="#107070"/>
<path d="M168.284 283.267C167.029 283.267 165.917 283.004 164.951 282.478C164.001 281.935 163.254 281.18 162.712 280.213C162.186 279.23 161.923 278.076 161.923 276.753V276.448C161.923 275.125 162.186 273.98 162.712 273.013C163.237 272.029 163.975 271.274 164.925 270.748C165.875 270.205 166.978 269.934 168.233 269.934C169.471 269.934 170.548 270.214 171.464 270.774C172.38 271.316 173.093 272.08 173.602 273.064C174.111 274.03 174.365 275.159 174.365 276.448V277.542H165.18C165.214 278.407 165.536 279.111 166.147 279.654C166.757 280.197 167.504 280.468 168.386 280.468C169.285 280.468 169.946 280.273 170.37 279.883C170.794 279.493 171.117 279.06 171.337 278.585L173.958 279.959C173.72 280.4 173.373 280.884 172.915 281.409C172.474 281.918 171.88 282.359 171.134 282.732C170.387 283.089 169.437 283.267 168.284 283.267ZM165.205 275.15H171.108C171.04 274.421 170.743 273.835 170.218 273.394C169.709 272.953 169.039 272.733 168.207 272.733C167.342 272.733 166.655 272.953 166.147 273.394C165.638 273.835 165.324 274.421 165.205 275.15Z" fill="#107070"/>
<path d="M155.775 282.911V265.1H158.981V282.911H155.775Z" fill="#107070"/>
<path d="M147.131 283.267C145.995 283.267 145.121 283.072 144.511 282.682C143.9 282.292 143.45 281.859 143.162 281.384H142.704V282.911H139.549V265.1H142.755V271.741H143.213C143.4 271.436 143.645 271.147 143.951 270.876C144.273 270.604 144.689 270.384 145.198 270.214C145.723 270.028 146.368 269.934 147.131 269.934C148.149 269.934 149.091 270.189 149.956 270.698C150.821 271.19 151.516 271.919 152.042 272.886C152.568 273.853 152.831 275.023 152.831 276.397V276.804C152.831 278.178 152.568 279.349 152.042 280.316C151.516 281.283 150.821 282.02 149.956 282.529C149.091 283.021 148.149 283.267 147.131 283.267ZM146.164 280.468C147.148 280.468 147.971 280.155 148.633 279.527C149.294 278.882 149.625 277.949 149.625 276.728V276.474C149.625 275.252 149.294 274.328 148.633 273.7C147.988 273.056 147.165 272.733 146.164 272.733C145.181 272.733 144.358 273.056 143.696 273.7C143.035 274.328 142.704 275.252 142.704 276.474V276.728C142.704 277.949 143.035 278.882 143.696 279.527C144.358 280.155 145.181 280.468 146.164 280.468Z" fill="#107070"/>
<path d="M128.758 283.267C127.859 283.267 127.053 283.114 126.341 282.809C125.628 282.487 125.06 282.029 124.636 281.435C124.229 280.824 124.025 280.086 124.025 279.221C124.025 278.356 124.229 277.635 124.636 277.058C125.06 276.465 125.637 276.024 126.366 275.735C127.113 275.43 127.961 275.277 128.911 275.277H132.371V274.565C132.371 273.971 132.185 273.488 131.811 273.114C131.438 272.724 130.844 272.529 130.03 272.529C129.233 272.529 128.639 272.716 128.249 273.089C127.859 273.445 127.605 273.912 127.486 274.488L124.534 273.496C124.738 272.852 125.06 272.266 125.501 271.74C125.959 271.198 126.561 270.765 127.308 270.443C128.071 270.104 128.996 269.934 130.081 269.934C131.744 269.934 133.058 270.35 134.025 271.181C134.992 272.012 135.475 273.216 135.475 274.794V279.501C135.475 280.01 135.713 280.264 136.188 280.264H137.206V282.911H135.068C134.441 282.911 133.923 282.758 133.516 282.453C133.109 282.147 132.905 281.74 132.905 281.231V281.206H132.422C132.354 281.409 132.202 281.681 131.964 282.02C131.727 282.342 131.353 282.631 130.845 282.885C130.336 283.14 129.64 283.267 128.758 283.267ZM129.318 280.671C130.217 280.671 130.946 280.426 131.506 279.934C132.083 279.425 132.371 278.755 132.371 277.923V277.669H129.14C128.546 277.669 128.08 277.796 127.74 278.051C127.401 278.305 127.231 278.661 127.231 279.119C127.231 279.577 127.41 279.951 127.766 280.239C128.122 280.527 128.639 280.671 129.318 280.671Z" fill="#107070"/>
<path d="M103.122 282.911V270.29H106.277V271.664H106.735C106.955 271.24 107.32 270.876 107.829 270.57C108.338 270.248 109.008 270.087 109.839 270.087C110.738 270.087 111.459 270.265 112.002 270.621C112.545 270.96 112.96 271.41 113.249 271.97H113.707C113.995 271.427 114.402 270.977 114.928 270.621C115.454 270.265 116.2 270.087 117.167 270.087C117.947 270.087 118.651 270.256 119.279 270.596C119.924 270.918 120.433 271.418 120.806 272.097C121.196 272.758 121.391 273.598 121.391 274.616V282.911H118.185V274.845C118.185 274.149 118.007 273.632 117.651 273.293C117.294 272.937 116.794 272.758 116.149 272.758C115.42 272.758 114.852 272.996 114.445 273.471C114.054 273.929 113.859 274.59 113.859 275.456V282.911H110.653V274.845C110.653 274.149 110.475 273.632 110.119 273.293C109.763 272.937 109.262 272.758 108.618 272.758C107.888 272.758 107.32 272.996 106.913 273.471C106.523 273.929 106.328 274.59 106.328 275.456V282.911H103.122Z" fill="#107070"/>
<path d="M81.4048 282.911V270.29H84.5599V271.664H85.0179C85.2384 271.24 85.6031 270.876 86.112 270.57C86.6209 270.248 87.2909 270.087 88.1221 270.087C89.0212 270.087 89.7421 270.265 90.2849 270.621C90.8277 270.96 91.2433 271.41 91.5317 271.97H91.9897C92.278 271.427 92.6851 270.977 93.211 270.621C93.7368 270.265 94.4832 270.087 95.4501 270.087C96.2304 270.087 96.9344 270.256 97.562 270.596C98.2066 270.918 98.7155 271.418 99.0887 272.097C99.4788 272.758 99.6739 273.598 99.6739 274.616V282.911H96.4679V274.845C96.4679 274.149 96.2898 273.632 95.9335 273.293C95.5773 272.937 95.0769 272.758 94.4323 272.758C93.7029 272.758 93.1347 272.996 92.7276 273.471C92.3374 273.929 92.1423 274.59 92.1423 275.456V282.911H88.9363V274.845C88.9363 274.149 88.7582 273.632 88.402 273.293C88.0458 272.937 87.5454 272.758 86.9008 272.758C86.1714 272.758 85.6031 272.996 85.196 273.471C84.8059 273.929 84.6108 274.59 84.6108 275.456V282.911H81.4048Z" fill="#107070"/>
<path d="M70.6133 283.267C69.7142 283.267 68.9085 283.114 68.1961 282.809C67.4836 282.487 66.9154 282.029 66.4913 281.435C66.0842 280.824 65.8806 280.086 65.8806 279.221C65.8806 278.356 66.0842 277.635 66.4913 277.058C66.9154 276.465 67.4921 276.024 68.2215 275.735C68.9679 275.43 69.816 275.277 70.7659 275.277H74.2264V274.565C74.2264 273.971 74.0398 273.488 73.6666 273.114C73.2934 272.724 72.6997 272.529 71.8855 272.529C71.0882 272.529 70.4945 272.716 70.1044 273.089C69.7142 273.445 69.4598 273.912 69.3411 274.488L66.3895 273.496C66.5931 272.852 66.9154 272.266 67.3564 271.74C67.8144 271.198 68.4166 270.765 69.1629 270.443C69.9263 270.104 70.8508 269.934 71.9364 269.934C73.5988 269.934 74.9134 270.35 75.8803 271.181C76.8472 272.012 77.3306 273.216 77.3306 274.794V279.501C77.3306 280.01 77.5681 280.264 78.043 280.264H79.0608V282.911H76.9235C76.2959 282.911 75.7785 282.758 75.3714 282.453C74.9643 282.147 74.7607 281.74 74.7607 281.231V281.206H74.2773C74.2094 281.409 74.0568 281.681 73.8193 282.02C73.5818 282.342 73.2086 282.631 72.6997 282.885C72.1908 283.14 71.4953 283.267 70.6133 283.267ZM71.1731 280.671C72.0721 280.671 72.8015 280.426 73.3613 279.934C73.938 279.425 74.2264 278.755 74.2264 277.923V277.669H70.9949C70.4012 277.669 69.9348 277.796 69.5955 278.051C69.2562 278.305 69.0866 278.661 69.0866 279.119C69.0866 279.577 69.2647 279.951 69.6209 280.239C69.9772 280.527 70.4945 280.671 71.1731 280.671Z" fill="#107070"/>
<path d="M56.9047 282.91V270.29H60.0598V271.715H60.5178C60.7044 271.206 61.0097 270.833 61.4338 270.595C61.8748 270.358 62.3837 270.239 62.9604 270.239H64.4871V273.089H62.9095C62.0953 273.089 61.4253 273.309 60.8994 273.75C60.3736 274.175 60.1107 274.836 60.1107 275.735V282.91H56.9047Z" fill="#107070"/>
<path d="M40.068 276.651V276.244C40.068 274.921 40.3309 273.793 40.8568 272.86C41.3826 271.91 42.0781 271.189 42.9432 270.697C43.8253 270.188 44.7837 269.934 45.8184 269.934C46.9719 269.934 47.8455 270.137 48.4392 270.545C49.0329 270.952 49.4655 271.376 49.7369 271.817H50.1949V270.29H53.35V285.15C53.35 286.015 53.0955 286.702 52.5866 287.211C52.0778 287.737 51.3992 287.999 50.5511 287.999H42.1035V285.201H49.4315C49.9065 285.201 50.144 284.946 50.144 284.437V281.155H49.686C49.5164 281.426 49.2789 281.706 48.9735 281.995C48.6682 282.266 48.2611 282.495 47.7522 282.682C47.2433 282.868 46.5987 282.961 45.8184 282.961C44.7837 282.961 43.8253 282.716 42.9432 282.224C42.0781 281.715 41.3826 280.994 40.8568 280.061C40.3309 279.111 40.068 277.974 40.068 276.651ZM46.7344 280.163C47.7183 280.163 48.541 279.849 49.2025 279.221C49.8641 278.594 50.1949 277.711 50.1949 276.575V276.32C50.1949 275.167 49.8641 274.285 49.2025 273.674C48.5579 273.047 47.7352 272.733 46.7344 272.733C45.7506 272.733 44.9279 273.047 44.2663 273.674C43.6048 274.285 43.274 275.167 43.274 276.32V276.575C43.274 277.711 43.6048 278.594 44.2663 279.221C44.9279 279.849 45.7506 280.163 46.7344 280.163Z" fill="#107070"/>
<path d="M31.1035 283.267C29.8482 283.267 28.7202 283.012 27.7194 282.503C26.7185 281.995 25.9298 281.257 25.353 280.29C24.7763 279.323 24.4879 278.161 24.4879 276.804V276.397C24.4879 275.04 24.7763 273.878 25.353 272.911C25.9298 271.944 26.7185 271.206 27.7194 270.697C28.7202 270.188 29.8482 269.934 31.1035 269.934C32.3587 269.934 33.4868 270.188 34.4876 270.697C35.4884 271.206 36.2772 271.944 36.8539 272.911C37.4306 273.878 37.719 275.04 37.719 276.397V276.804C37.719 278.161 37.4306 279.323 36.8539 280.29C36.2772 281.257 35.4884 281.995 34.4876 282.503C33.4868 283.012 32.3587 283.267 31.1035 283.267ZM31.1035 280.417C32.0873 280.417 32.9015 280.103 33.5461 279.476C34.1907 278.831 34.513 277.915 34.513 276.728V276.473C34.513 275.286 34.1907 274.378 33.5461 273.751C32.9185 273.106 32.1043 272.784 31.1035 272.784C30.1196 272.784 29.3054 273.106 28.6608 273.751C28.0162 274.378 27.6939 275.286 27.6939 276.473V276.728C27.6939 277.915 28.0162 278.831 28.6608 279.476C29.3054 280.103 30.1196 280.417 31.1035 280.417Z" fill="#107070"/>
<path d="M15.4575 282.91V270.29H18.6126V271.715H19.0706C19.2572 271.206 19.5626 270.833 19.9866 270.595C20.4277 270.358 20.9366 270.239 21.5133 270.239H23.04V273.089H21.4624C20.6482 273.089 19.9781 273.309 19.4523 273.75C18.9264 274.175 18.6635 274.836 18.6635 275.735V282.91H15.4575Z" fill="#107070"/>
<path d="M0 282.911V265.1H7.32799C8.44755 265.1 9.4314 265.329 10.2795 265.787C11.1447 266.228 11.8147 266.856 12.2897 267.67C12.7816 268.484 13.0275 269.451 13.0275 270.57V270.927C13.0275 272.029 12.7731 272.996 12.2642 273.827C11.7723 274.642 11.0938 275.278 10.2287 275.736C9.38051 276.177 8.41362 276.397 7.32799 276.397H3.35866V282.911H0ZM3.35866 273.344H6.99721C7.79447 273.344 8.43906 273.123 8.93099 272.682C9.42292 272.241 9.66888 271.639 9.66888 270.876V270.621C9.66888 269.858 9.42292 269.256 8.93099 268.815C8.43906 268.374 7.79447 268.153 6.99721 268.153H3.35866V273.344Z" fill="#107070"/>
<path fill-rule="evenodd" clip-rule="evenodd" d="M86.5419 47.9517L136 23.8798V0C115.531 0 95.1565 17.2329 86.5419 47.9517Z" fill="#1EC4C4"/>
<path fill-rule="evenodd" clip-rule="evenodd" d="M185.458 47.9517L136 23.8798V0C156.469 0 176.844 17.2329 185.458 47.9517Z" fill="#107070"/>
<path fill-rule="evenodd" clip-rule="evenodd" d="M89.0687 107.119C95.8658 125.651 94.8429 146.735 86 160H124.013L89.0687 107.119Z" fill="#1EC4C4"/>
<path fill-rule="evenodd" clip-rule="evenodd" d="M182.931 107.119C176.134 125.651 177.157 146.735 186 160H147.987L182.931 107.119Z" fill="#107070"/>
<path fill-rule="evenodd" clip-rule="evenodd" d="M136 40.5608V150.931L191.185 67.4208L136 40.5608Z" fill="#107070"/>
<path fill-rule="evenodd" clip-rule="evenodd" d="M136 40.5608L80.8151 67.4208L136 150.931V40.5608Z" fill="#1EC4C4"/>
</svg>
